{"title":"Taken 2 2012 TRUE 720p TS OWN SOURCE READNFO XviD AC3 - MATiNE","uid":7737134,"size":2644012526,"categoryP":"video","categoryS":"hd___movies","magnet":"?xt=urn:btih:6beaa668fbd6e12e006f5a15d916574b77f77744&amp;dn=Taken+2+2012+TRUE+720p+TS+OWN+SOURCE+READNFO+XviD+AC3+-+MATiNE&amp;tr=udp%3A%2F%2Ftracker.openbittorrent.com%3A80&amp;tr=udp%3A%2F%2Fopen.demonii.com%3A1337&amp;tr=udp%3A%2F%2Ftracker.coppersurfer.tk%3A6969&amp;tr=udp%3A%2F%2Fexodus.desync.com%3A6969","seeders":5,"leechers":2,"uploader":"lyrical1986","files":3,"time":1350514076,"description":"In Istanbul, retired CIA operative Bryan Mills and his wife are taken hostage by the father of a kidnapper Mills killed while rescuing his daughter.\n\nLiam Neeson, \nFamke Janssen, \nMaggie Grace, \nRade Serbedzija\n\n\nTaken 2 2012 TRUE 720p TS OWN SOURCE READNFO XviD - MATiNE\niMDB URL: http://www.imdb.com/title/tt1397280/\nTheatre Date: Oct 05, 2012 Source: 1080p MATiNE CAM\nRelease Date: Oct 16, 2012 Audio: MATiNE LiNE\nRuntime: 01h:26m:23s Format: XviD\nMPAA Rating: PG-13 Disc's...CD1: 2.76gB\niMDB Rating: 6.7/10\n\nFormat                           : AVI\nFormat/Info                      : Audio Video Interleave\nFormat profile                   : OpenDML\nFile size                        : 2.43 GiB\nDuration                         : 1h 26mn\nOverall bit rate                 : 4 027 Kbps\nWriting library                  : VirtualDub build 32842/release\n\nVideo\nID                               : 0\nFormat                           : MPEG-4 Visual\nFormat profile                   : Advanced Simple@L5\nFormat settings, BVOP            : 2\nFormat settings, QPel            : No\nFormat settings, GMC             : No warppoints\nFormat settings, Matrix          : Default (H.263)\nMuxing mode                      : Packed bitstream\nCodec ID                         : XVID\nCodec ID/Hint                    : XviD\nDuration                         : 1h 26mn\nBit rate                         : 3 631 Kbps\nWidth                            : 1 280 pixels\nHeight                           : 544 pixels\nDisplay aspect ratio             : 2.35:1\nFrame rate                       : 25.000 fps\nColor space                      : YUV\nChroma subsampling               : 4:2:0\nBit depth                        : 8 bits\nScan type                        : Progressive\nCompression mode                 : Lossy\nBits/(Pixel*Frame)               : 0.209\nStream size                      : 2.19 GiB (90%)\nWriting library                  : XviD 64\n\nAudio\nID                               : 1\nFormat                           : AC-3\nFormat/Info                      : Audio Coding 3\nMode extension                   : CM (complete main)\nCodec ID                         : 2000\nDuration                         : 1h 26mn\nBit rate mode                    : Constant\nBit rate                         : 384 Kbps\nChannel(s)                       : 2 channels\nChannel positions                : Front: L R\nSampling rate                    : 44.1 KHz\nBit depth                        : 16 bits\nCompression mode                 : Lossy\nStream size                      : 237 MiB (10%)\nAlignment                        : Split accross interleaves\nInterleave, duration             : 35 ms (0.87 video frame)\n\n &lt;a href=&quot;\nhttp://i.imgur.com/fJi2g.png&quot; rel=&quot;nofollow&quot; target=&quot;_NEW&quot;&gt;\nhttp://i.imgur.com/fJi2g.png&lt;/a&gt; &lt;a href=&quot;\nhttp://i.imgur.com/p00yn.png&quot; rel=&quot;nofollow&quot; target=&quot;_NEW&quot;&gt;\nhttp://i.imgur.com/p00yn.png&lt;/a&gt; &lt;a href=&quot;\nhttp://i.imgur.com/eoi0D.png&quot; rel=&quot;nofollow&quot; target=&quot;_NEW&quot;&gt;\nhttp://i.imgur.com/eoi0D.png&lt;/a&gt; &lt;a href=&quot;\nhttp://i.imgur.com/EVlrV.png&quot; rel=&quot;nofollow&quot; target=&quot;_NEW&quot;&gt;\nhttp://i.imgur.com/EVlrV.png&lt;/a&gt;\n\n\n\n\n","torrent":{"xt":"urn:btih:6beaa668fbd6e12e006f5a15d916574b77f77744","amp;dn":"Taken+2+2012+TRUE+720p+TS+OWN+SOURCE+READNFO+XviD+AC3+-+MATiNE","amp;tr":["udp%3A%2F%2Ftracker.openbittorrent.com%3A80","udp%3A%2F%2Fopen.demonii.com%3A1337","udp%3A%2F%2Ftracker.coppersurfer.tk%3A6969","udp%3A%2F%2Fexodus.desync.com%3A6969"],"infoHash":"6beaa668fbd6e12e006f5a15d916574b77f77744","infoHashBuffer":{"type":"Buffer","data":[107,234,166,104,251,214,225,46,0,111,90,21,217,22,87,75,119,247,119,68]},"announce":[],"urlList":[]}}